<svg version="1.0" xmlns="http://www.w3.org/2000/svg"
 width="1338.000000pt" height="1200.000000pt" viewBox="0 0 1338.000000 1200.000000"
 preserveAspectRatio="xMidYMid meet">

<g transform="translate(0.000000,1200.000000) scale(0.100000,-0.100000)"
fill="#000000" stroke="none">
<path d="M0 6000 l0 -6000 6690 0 6690 0 0 6000 0 6000 -6690 0 -6690 0 0
-6000z m7401 5739 c111 -11 222 -38 286 -69 50 -24 97 -77 88 -99 -9 -22 -38
-460 -31 -476 2 -7 23 -16 45 -20 22 -3 52 -18 68 -31 21 -19 35 -23 58 -19
70 12 434 -160 640 -303 208 -144 433 -354 585 -542 78 -98 194 -269 265 -391
17 -28 48 -81 69 -118 82 -139 195 -493 246 -773 35 -193 46 -349 30 -426 -15
-73 -16 -162 -6 -317 11 -142 -11 -285 -54 -360 -56 -98 -196 -218 -340 -290
-274 -138 -630 -234 -1052 -285 -48 -6 -95 -13 -103 -16 -19 -8 -19 15 1 86
24 88 21 295 -6 400 -64 249 -223 451 -450 572 -139 74 -222 91 -550 113 -124
8 -238 17 -255 20 -16 2 -82 9 -145 15 -307 27 -783 92 -1025 139 -256 51
-602 144 -710 191 -11 5 -51 21 -90 36 -139 53 -325 152 -406 215 l-36 29 13
57 c7 32 29 105 47 163 114 352 291 674 527 960 129 155 379 390 416 390 11 0
78 40 149 88 112 75 212 136 413 249 23 13 42 28 42 32 0 5 8 11 18 14 9 3 62
22 117 42 173 62 388 114 541 131 74 8 68 -9 83 224 19 269 21 286 41 308 55
58 251 84 471 61z m-4878 -2230 c77 -21 128 -95 192 -284 21 -60 51 -128 66
-149 16 -22 29 -47 29 -55 0 -9 7 -34 15 -56 26 -73 14 -148 -31 -193 -8 -7
-14 -17 -14 -21 0 -19 -100 -109 -138 -124 -52 -21 -84 -15 -132 25 -19 15
-41 28 -48 28 -7 0 -21 18 -31 40 -10 22 -20 37 -24 34 -11 -11 -54 91 -72
171 -10 44 -25 85 -33 92 -11 9 -12 24 -3 82 14 88 14 188 1 196 -15 9 -2 102
22 153 11 23 32 49 46 57 32 17 102 19 155 4z m749 -28 c52 -23 91 -62 114
-116 22 -52 35 -279 23 -405 -16 -180 -28 -229 -66 -274 -17 -20 -21 -32 -14
-39 17 -17 13 -41 -10 -55 -18 -12 -19 -11 -10 7 20 36 14 51 -17 45 -19 -4
-32 -1 -41 10 -8 9 -21 16 -31 16 -20 0 -37 -33 -21 -38 14 -5 55 -72 48 -79
-3 -3 -18 4 -32 15 -14 11 -40 24 -58 27 -64 13 -67 15 -67 49 0 19 -10 46
-26 67 -19 26 -24 42 -20 67 3 23 -1 46 -14 70 -16 30 -20 57 -20 144 0 61 -4
108 -9 108 -12 0 -6 50 21 169 23 101 76 197 120 219 35 16 82 14 130 -7z
m-1132 -485 c0 -21 47 -29 72 -12 18 13 23 13 43 0 16 -10 21 -21 18 -35 -3
-11 1 -27 10 -37 8 -9 20 -36 26 -59 12 -45 11 -183 -2 -183 -4 0 -5 -32 -2
-72 6 -80 32 -135 68 -140 22 -3 32 -27 12 -29 -31 -4 -50 -31 -50 -72 0 -39
-2 -42 -28 -45 -16 -2 -34 2 -42 8 -8 7 -19 9 -25 5 -17 -10 -120 53 -187 116
-28 26 -43 49 -43 65 0 13 -4 24 -9 24 -6 0 -20 17 -33 38 -13 20 -43 65 -67
100 -36 50 -45 71 -48 111 -3 49 -2 49 60 103 34 30 91 68 127 83 36 16 69 32
75 37 14 12 25 10 25 -6z m1647 -376 c17 -6 36 -22 43 -36 8 -14 25 -30 39
-37 35 -16 38 -61 10 -126 -12 -28 -25 -51 -28 -51 -4 0 -21 -28 -37 -62 -43
-92 -90 -154 -162 -214 -121 -99 -264 -152 -339 -125 -49 18 -88 61 -103 116
-16 57 -6 113 31 169 32 48 149 156 170 156 17 0 118 79 136 106 23 35 135
106 158 100 11 -3 27 -1 35 4 18 12 12 12 47 0z m-584 -701 c91 -14 132 -33
145 -67 6 -15 16 -65 22 -112 18 -137 61 -338 111 -518 16 -56 29 -105 29
-107 0 -3 5 -4 11 -2 10 2 32 -50 79 -183 22 -59 101 -252 126 -306 13 -28 24
-54 24 -58 0 -4 16 -41 35 -82 19 -41 35 -77 35 -80 0 -13 145 -222 200 -289
105 -127 268 -282 380 -361 134 -93 312 -204 329 -204 4 0 11 69 14 153 7 175
21 229 82 302 67 82 248 187 415 241 178 58 256 76 335 81 138 7 261 10 273 6
44 -17 -32 -53 -113 -53 -20 0 -47 -7 -61 -16 -17 -12 -38 -15 -76 -12 -80 8
-261 -47 -428 -130 -162 -80 -260 -197 -260 -311 0 -190 267 -398 698 -544 73
-25 138 -50 145 -55 7 -5 26 -12 42 -14 17 -3 50 -10 75 -16 25 -6 88 -20 140
-31 52 -11 118 -26 145 -32 46 -10 123 -23 285 -48 462 -72 1080 -78 1540 -16
119 16 147 21 315 62 265 64 487 176 561 282 76 111 89 136 88 178 -1 35 -9
51 -50 99 -26 31 -82 84 -124 117 -100 79 -161 145 -160 174 0 4 7 16 15 26
13 18 18 16 102 -33 48 -28 99 -62 113 -75 14 -13 50 -45 80 -72 50 -44 84
-77 122 -122 8 -9 23 -21 34 -27 16 -9 19 -23 19 -81 0 -42 -5 -76 -13 -85 -7
-9 -21 -78 -32 -154 -10 -77 -24 -176 -31 -221 l-13 -83 30 -32 c195 -208 508
-729 664 -1103 23 -55 46 -109 51 -120 42 -91 135 -373 168 -510 66 -272 86
-444 86 -760 0 -316 -23 -501 -96 -788 -37 -146 -134 -414 -158 -440 -7 -7
-73 15 -156 53 -11 5 -81 34 -155 65 -74 31 -173 73 -220 92 -47 20 -103 48
-125 62 -22 15 -47 30 -57 33 -13 5 -15 15 -11 46 3 24 1 42 -6 46 -7 5 -8 13
-2 24 5 9 20 51 34 92 158 466 156 975 -5 1455 -31 93 -35 104 -87 220 -57
125 -237 423 -276 455 -9 7 -23 -18 -55 -98 -248 -614 -623 -1223 -973 -1581
-261 -266 -514 -426 -772 -487 -177 -42 -472 -3 -587 77 -14 11 -29 19 -32 19
-8 0 -193 126 -231 157 -141 117 -301 299 -431 493 -127 188 -290 501 -384
735 -17 44 -36 89 -40 100 -40 92 -132 355 -170 485 -12 41 -28 95 -35 120 -8
25 -18 63 -24 85 -5 22 -20 83 -34 136 -14 53 -40 165 -57 250 -19 94 -37 158
-46 166 -9 6 -59 28 -112 49 -144 57 -447 209 -464 232 -7 11 -38 30 -68 41
-114 43 -383 242 -535 395 -137 138 -284 297 -298 322 -6 10 -25 35 -43 54
-45 49 -129 173 -212 317 -229 395 -410 889 -506 1383 -15 74 -31 157 -36 184
-6 27 -13 89 -17 138 -7 101 0 115 73 147 121 54 196 59 167 11 -9 -14 -9 -20
-1 -22 25 -9 -2 -36 -42 -43 -35 -6 -41 -10 -38 -28 2 -18 9 -22 36 -19 21 1
31 -2 27 -8 -4 -6 34 -10 108 -10 127 0 177 7 177 24 0 11 59 42 73 38 4 -1 7
12 7 28 0 17 -3 30 -8 30 -9 0 -31 68 -24 75 8 8 47 6 125 -6z m7472 -571 c-4
-13 -11 -27 -16 -32 -5 -6 -9 -18 -9 -29 0 -28 -25 -15 -28 16 -4 35 14 67 39
67 16 0 19 -4 14 -22z m555 -67 c40 -11 70 -32 70 -51 0 -4 -11 -12 -25 -18
-14 -6 -25 -18 -25 -27 0 -19 -23 -19 -61 0 -16 9 -35 14 -43 13 -12 -3 -86
55 -86 67 0 3 15 13 33 21 33 15 61 14 137 -5z m-374 -1 c20 -8 36 -8 56 1 24
10 36 9 71 -6 65 -26 72 -31 75 -49 3 -12 -4 -16 -29 -16 -36 0 -100 20 -110
34 -4 4 -23 3 -43 -4 -42 -13 -66 -2 -66 31 0 22 8 23 46 9z m548 -61 c21 -24
24 -34 15 -45 -17 -20 -52 -17 -77 6 -27 25 -28 39 -4 56 26 20 38 17 66 -17z
m-753 -38 c0 -20 2 -44 4 -55 2 -10 0 -37 -4 -60 l-8 -41 -15 35 c-9 22 -12
39 -6 46 12 16 16 85 6 106 -6 13 -5 16 7 12 9 -4 15 -20 16 -43z m1265 -333
c-1 -29 2 -33 27 -36 31 -4 38 17 7 25 -30 8 -24 23 8 23 42 0 53 -16 35 -52
-14 -28 -14 -31 6 -44 30 -22 27 -38 -6 -29 -31 7 -55 25 -35 25 7 0 12 5 12
10 0 6 -10 8 -24 4 -40 -10 -125 49 -113 79 5 14 19 18 73 26 7 0 11 -12 10
-31z m-1232 13 c3 -4 -2 -32 -12 -62 -13 -42 -23 -56 -45 -63 -22 -8 -30 -7
-37 4 -12 19 -4 45 26 93 23 35 56 49 68 28z m74 -111 c3 -33 -12 -55 -32 -47
-11 4 -16 19 -16 42 0 32 3 36 23 33 15 -2 23 -11 25 -28z m101 -5 c41 -21 54
-73 30 -121 -12 -23 -101 -59 -124 -50 -22 8 -18 36 5 36 25 0 25 4 -2 41
l-23 31 26 22 c14 12 28 30 32 39 8 21 20 21 56 2z m1249 -48 c2 -11 -3 -17
-16 -17 -48 0 -70 25 -29 33 32 6 42 3 45 -16z m-377 -77 c25 -14 25 -50 0
-50 -24 0 -45 25 -37 45 6 18 11 18 37 5z m794 -30 c3 -5 13 -10 22 -10 8 0
27 -9 42 -19 33 -24 142 -81 154 -81 5 0 40 -19 78 -41 l69 -41 0 -99 c0 -54
-3 -100 -8 -102 -4 -3 -32 10 -63 28 -66 38 -134 77 -209 118 -30 16 -62 36
-71 43 -8 8 -20 14 -26 14 -6 0 -31 23 -57 52 -48 54 -63 108 -30 108 9 0 27
9 41 20 28 22 48 25 58 10z m-1760 -110 c19 -37 19 -49 -2 -72 -22 -25 -32
-23 -44 8 -10 29 4 94 22 94 4 0 15 -13 24 -30z m465 -145 c0 -20 -5 -25 -24
-25 -26 0 -51 24 -41 40 3 5 19 10 36 10 24 0 29 -4 29 -25z m960 -85 c26 -28
32 -30 72 -23 48 9 145 9 153 1 3 -3 8 -79 11 -169 6 -178 13 -222 49 -314 13
-33 26 -91 29 -130 3 -38 8 -102 12 -141 4 -46 2 -83 -5 -107 -12 -35 -15 -37
-56 -37 -30 0 -45 5 -49 16 -8 21 -6 105 3 171 6 43 4 53 -8 58 -12 5 -13 8
-3 14 10 6 10 15 2 35 -5 15 -10 43 -10 63 0 20 -4 53 -10 74 -5 22 -15 56
-20 78 -7 25 -22 48 -45 65 -19 15 -35 35 -35 46 0 45 -26 68 -32 29 -2 -12
-11 -27 -21 -33 -15 -9 -22 -6 -42 19 -13 17 -37 45 -52 64 l-27 33 17 49 c13
36 15 54 7 68 -16 31 -12 79 8 90 23 14 20 15 52 -19z m-873 -12 c-3 -8 -6 -5
-6 6 -1 11 2 17 5 13 3 -3 4 -12 1 -19z m473 -278 c10 -5 33 -35 50 -65 29
-50 33 -54 45 -39 7 10 19 15 29 11 18 -7 22 -42 4 -53 -8 -5 -6 -11 5 -19 56
-40 114 -189 80 -202 -12 -5 -11 -8 2 -23 15 -16 15 -21 0 -56 -35 -85 -90
-106 -169 -64 -21 12 -61 30 -89 41 -29 11 -63 32 -77 48 -14 15 -46 40 -73
55 -28 17 -44 32 -40 39 4 6 8 45 8 87 4 177 4 176 32 209 30 34 43 39 43 16
0 -21 17 -19 47 5 28 22 73 26 103 10z m604 -736 c11 -28 6 -44 -12 -44 -27 0
-32 9 -20 36 13 28 23 31 32 8z m-784 -44 c12 -8 11 -10 -7 -10 -13 0 -23 5
-23 10 0 13 11 13 30 0z m-9062 -455 c14 -22 36 -58 48 -80 33 -61 58 -105 94
-164 l33 -54 19 22 18 23 33 -74 c18 -40 51 -117 73 -170 21 -54 41 -98 44
-97 3 0 82 85 175 189 94 103 174 187 179 186 5 -1 31 -63 58 -137 73 -198 89
-242 99 -264 5 -11 31 -87 59 -170 27 -82 68 -197 91 -255 22 -58 43 -113 46
-122 3 -9 11 -14 18 -12 8 3 16 -11 24 -40 6 -25 15 -48 21 -51 19 -12 11 -37
-9 -30 -18 5 -19 3 -11 -24 5 -17 15 -40 23 -51 8 -12 13 -30 10 -41 -4 -14 0
-19 13 -19 25 0 48 -48 33 -67 -16 -18 -30 -17 -91 9 -98 42 -353 176 -402
212 -17 13 -80 51 -141 85 -60 35 -141 81 -180 103 -38 23 -144 84 -235 136
-91 52 -178 105 -195 117 -16 12 -55 35 -85 51 -30 16 -57 32 -60 35 -3 3 -30
19 -60 36 -30 17 -90 51 -133 77 -43 25 -80 46 -84 46 -4 0 -14 6 -22 14 -9 7
-41 27 -71 43 -30 16 -95 54 -145 84 -49 30 -130 75 -180 99 -117 58 -183 97
-220 130 -16 15 -47 37 -67 49 -21 13 -38 25 -38 29 0 12 34 42 47 42 8 0 31
9 53 20 22 11 51 20 66 20 14 0 69 12 121 26 86 23 128 25 94 5 -9 -6 -10 -11
-2 -15 19 -12 12 -25 -15 -32 -17 -4 -31 -19 -41 -41 -13 -32 -13 -36 4 -49
10 -7 25 -13 33 -13 34 2 40 -2 40 -29 0 -27 2 -29 43 -28 35 1 41 -2 39 -16
-2 -12 4 -18 17 -18 11 0 22 -6 24 -12 4 -8 8 -5 12 8 6 19 16 22 83 27 49 3
92 13 117 25 22 12 66 33 98 47 76 34 83 40 211 173 l110 113 19 -33 c11 -18
31 -51 45 -73z m-378 35 c0 -5 -4 -10 -10 -10 -5 0 -10 5 -10 10 0 6 5 10 10
10 6 0 10 -4 10 -10z m30 -34 c0 -7 9 -25 20 -39 32 -41 23 -43 -15 -4 -38 39
-44 57 -20 57 8 0 15 -6 15 -14z m-905 -1067 c4 -10 11 -19 16 -19 6 0 9 -10
7 -22 -5 -35 -39 -34 -73 2 l-30 31 24 19 c28 20 47 17 56 -11z m10830 -386
c23 -23 37 -62 29 -85 -4 -14 -13 -18 -37 -16 -61 6 -92 118 -33 118 14 0 32
-7 41 -17z m-3128 -1784 l28 -11 -23 -12 c-21 -11 -22 -14 -8 -25 54 -45 -30
-174 -200 -307 -90 -70 -134 -130 -134 -182 0 -17 11 -66 24 -109 50 -159 44
-210 -32 -280 -52 -48 -90 -55 -132 -26 -118 80 -260 381 -260 546 1 40 6 81
13 93 21 36 181 163 193 153 7 -5 27 1 55 19 24 15 73 40 109 56 36 15 83 36
105 46 60 26 158 45 163 31 2 -6 17 -11 33 -11 21 0 27 4 23 15 -7 18 4 19 43
4z m330 -225 c93 -71 83 -206 -30 -431 -119 -238 -195 -362 -234 -386 -18 -10
-33 -22 -33 -26 0 -3 -13 -12 -30 -19 -24 -11 -29 -18 -24 -37 4 -16 -1 -30
-15 -44 -12 -12 -21 -27 -21 -35 0 -22 -31 -24 -68 -4 -18 10 -43 18 -56 18
-29 0 -41 13 -57 68 -27 91 24 249 191 597 142 295 260 388 377 299z m352
-150 c85 -24 126 -64 140 -140 10 -53 0 -228 -19 -319 -6 -27 -17 -102 -25
-165 -8 -63 -19 -116 -25 -118 -5 -2 -10 -10 -10 -18 0 -28 -39 -89 -88 -141
-56 -58 -103 -74 -157 -54 -17 6 -41 11 -52 11 -11 0 -34 7 -49 15 -16 8 -41
15 -56 15 -15 0 -30 5 -33 11 -4 6 -19 7 -36 4 -16 -4 -29 -4 -29 0 0 9 40 87
60 115 9 14 15 31 13 38 -3 7 15 38 39 70 23 31 51 69 60 83 29 48 48 150 57
321 8 147 11 171 32 210 23 41 73 76 108 78 8 0 40 -7 70 -16z"/>
<path d="M12229 6069 c-9 -5 -10 -9 -2 -9 6 0 15 -9 18 -20 9 -28 25 -25 25 4
0 27 -20 39 -41 25z"/>
<path d="M2437 4759 c-26 -29 -50 -63 -53 -76 -4 -12 -13 -23 -21 -23 -9 0
-31 -16 -50 -36 -31 -33 -33 -38 -18 -53 8 -10 15 -25 15 -34 0 -9 5 -19 10
-22 6 -3 10 -15 10 -26 0 -18 15 -24 47 -20 20 3 26 -20 7 -33 -9 -7 -14 -18
-10 -24 11 -18 26 -14 26 7 0 10 6 21 13 24 15 6 21 87 5 87 -6 0 -8 11 -5 29
4 18 2 31 -5 33 -7 3 -9 12 -5 23 7 17 8 17 23 -1 15 -18 15 -18 10 7 -6 26
-5 26 53 27 63 0 74 -8 67 -51 -1 -12 -1 -16 1 -9 5 14 23 16 23 2 0 -5 5 -10
11 -10 12 0 1 43 -12 48 -5 2 -9 10 -9 17 0 20 -32 85 -42 85 -4 0 -8 6 -8 13
0 6 -8 24 -18 40 l-19 27 -46 -51z m-17 -80 c0 -5 -4 -9 -8 -9 -5 0 -9 7 -9
15 0 8 4 12 9 9 4 -3 8 -9 8 -15z m-55 -59 c-3 -5 -10 -10 -16 -10 -5 0 -9 5
-9 10 0 6 7 10 16 10 8 0 12 -4 9 -10z m-35 -19 c0 -5 -7 -12 -16 -15 -14 -5
-15 -4 -4 9 14 17 20 19 20 6z m40 -121 c0 -5 -2 -10 -4 -10 -3 0 -8 5 -11 10
-3 6 -1 10 4 10 6 0 11 -4 11 -10z"/>
<path d="M2400 4371 c0 -6 5 -13 10 -16 6 -3 10 1 10 9 0 9 -4 16 -10 16 -5 0
-10 -4 -10 -9z"/>
<path d="M2473 4224 c-3 -8 2 -23 11 -32 9 -10 16 -12 16 -5 0 7 -4 15 -10 18
-18 11 -11 27 10 22 11 -3 18 -1 14 4 -9 15 -34 10 -41 -7z"/>
</g>
</svg>
